REM DIRINDEX 1\3,1\4,1\5,1\6,1\2\7,1\2\8,1\2\9,1\10
REM DIRNAME folder01,folder02,folder03,folder04,folder05,folder06,folder07,folder08,folder09,folder10
TITLE ""
FILE "1-03 Level 1-016-027.mp3" MP3
  TRACK 01 AUDIO
    TITLE "0:"
    INDEX 01 00:00:00
  TRACK 02 AUDIO
    TITLE "7:cjc056_0048"
    INDEX 01 00:00:05
  TRACK 03 AUDIO
    TITLE "0:"
    INDEX 01 00:01:03
  TRACK 04 AUDIO
    TITLE "8:cjc056_0049"
    INDEX 01 00:01:15
  TRACK 05 AUDIO
    TITLE "0:"
    INDEX 01 00:02:20
  TRACK 06 AUDIO
    TITLE "9:cjc056_0050"
    INDEX 01 00:02:34
  TRACK 07 AUDIO
    TITLE "0:"
    INDEX 01 00:04:03
  TRACK 08 AUDIO
    TITLE "7:cjc056_0051"
    INDEX 01 00:04:54
  TRACK 09 AUDIO
    TITLE "0:"
    INDEX 01 00:05:52
  TRACK 10 AUDIO
    TITLE "8:cjc056_0052"
    INDEX 01 00:05:67
  TRACK 11 AUDIO
    TITLE "0:"
    INDEX 01 00:06:71
  TRACK 12 AUDIO
    TITLE "9:cjc056_0053"
    INDEX 01 00:07:09
  TRACK 13 AUDIO
    TITLE "0:"
    INDEX 01 00:08:66
  TRACK 14 AUDIO
    TITLE "7:cjc056_0054"
    INDEX 01 00:09:42
  TRACK 15 AUDIO
    TITLE "0:"
    INDEX 01 00:10:43
  TRACK 16 AUDIO
    TITLE "8:cjc056_0055"
    INDEX 01 00:10:57
  TRACK 17 AUDIO
    TITLE "0:"
    INDEX 01 00:11:64
  TRACK 18 AUDIO
    TITLE "9:cjc056_0056"
    INDEX 01 00:12:03
  TRACK 19 AUDIO
    TITLE "0:"
    INDEX 01 00:14:06
  TRACK 20 AUDIO
    TITLE "7:cjc056_0057"
    INDEX 01 00:14:54
  TRACK 21 AUDIO
    TITLE "0:"
    INDEX 01 00:15:60
  TRACK 22 AUDIO
    TITLE "8:cjc056_0058"
    INDEX 01 00:16:00
  TRACK 23 AUDIO
    TITLE "0:"
    INDEX 01 00:17:31
  TRACK 24 AUDIO
    TITLE "9:cjc056_0059"
    INDEX 01 00:17:45
  TRACK 25 AUDIO
    TITLE "0:"
    INDEX 01 00:19:15
  TRACK 26 AUDIO
    TITLE "7:cjc056_0060"
    INDEX 01 00:19:63
  TRACK 27 AUDIO
    TITLE "0:"
    INDEX 01 00:20:61
  TRACK 28 AUDIO
    TITLE "8:cjc056_0061"
    INDEX 01 00:21:00
  TRACK 29 AUDIO
    TITLE "0:"
    INDEX 01 00:21:64
  TRACK 30 AUDIO
    TITLE "9:cjc056_0062"
    INDEX 01 00:22:01
  TRACK 31 AUDIO
    TITLE "0:"
    INDEX 01 00:23:63
  TRACK 32 AUDIO
    TITLE "7:cjc056_0063"
    INDEX 01 00:24:39
  TRACK 33 AUDIO
    TITLE "0:"
    INDEX 01 00:25:54
  TRACK 34 AUDIO
    TITLE "8:cjc056_0064"
    INDEX 01 00:25:66
  TRACK 35 AUDIO
    TITLE "0:"
    INDEX 01 00:26:67
  TRACK 36 AUDIO
    TITLE "9:cjc056_0065"
    INDEX 01 00:27:04
  TRACK 37 AUDIO
    TITLE "0:"
    INDEX 01 00:28:43
  TRACK 38 AUDIO
    TITLE "8:cjc056_0066"
    INDEX 01 00:28:70
  TRACK 39 AUDIO
    TITLE "0:"
    INDEX 01 00:30:20
  TRACK 40 AUDIO
    TITLE "9:cjc056_0067"
    INDEX 01 00:30:34
  TRACK 41 AUDIO
    TITLE "0:"
    INDEX 01 00:32:00
  TRACK 42 AUDIO
    TITLE "7:cjc056_0068"
    INDEX 01 00:32:45
  TRACK 43 AUDIO
    TITLE "0:"
    INDEX 01 00:33:40
  TRACK 44 AUDIO
    TITLE "8:cjc056_0069"
    INDEX 01 00:33:50
  TRACK 45 AUDIO
    TITLE "0:"
    INDEX 01 00:34:73
  TRACK 46 AUDIO
    TITLE "9:cjc056_0070"
    INDEX 01 00:35:14
  TRACK 47 AUDIO
    TITLE "0:"
    INDEX 01 00:36:54
  TRACK 48 AUDIO
    TITLE "7:cjc056_0071"
    INDEX 01 00:37:26
  TRACK 49 AUDIO
    TITLE "0:"
    INDEX 01 00:38:37
  TRACK 50 AUDIO
    TITLE "8:cjc056_0072"
    INDEX 01 00:38:47
  TRACK 51 AUDIO
    TITLE "0:"
    INDEX 01 00:39:54
  TRACK 52 AUDIO
    TITLE "9:cjc056_0073"
    INDEX 01 00:39:66
  TRACK 53 AUDIO
    TITLE "0:"
    INDEX 01 00:41:26
  TRACK 54 AUDIO
    TITLE "7:cjc056_0074"
    INDEX 01 00:42:02
  TRACK 55 AUDIO
    TITLE "0:"
    INDEX 01 00:43:07
  TRACK 56 AUDIO
    TITLE "8:cjc056_0075"
    INDEX 01 00:43:19
  TRACK 57 AUDIO
    TITLE "0:"
    INDEX 01 00:44:32
  TRACK 58 AUDIO
    TITLE "9:cjc056_0076"
    INDEX 01 00:44:44
  TRACK 59 AUDIO
    TITLE "0:"
    INDEX 01 00:46:06
  TRACK 60 AUDIO
    TITLE "7:cjc056_0077"
    INDEX 01 00:46:56
  TRACK 61 AUDIO
    TITLE "0:"
    INDEX 01 00:47:58
  TRACK 62 AUDIO
    TITLE "8:cjc056_0078"
    INDEX 01 00:47:68
  TRACK 63 AUDIO
    TITLE "0:"
    INDEX 01 00:49:18
  TRACK 64 AUDIO
    TITLE "9:cjc056_0079"
    INDEX 01 00:49:29
  TRACK 65 AUDIO
    TITLE "0:"
    INDEX 01 00:50:50
  TRACK 66 AUDIO
    TITLE "7:cjc056_0080"
    INDEX 01 00:51:28
  TRACK 67 AUDIO
    TITLE "0:"
    INDEX 01 00:52:28
  TRACK 68 AUDIO
    TITLE "8:cjc056_0081"
    INDEX 01 00:52:41
  TRACK 69 AUDIO
    TITLE "0:"
    INDEX 01 00:53:72
  TRACK 70 AUDIO
    TITLE "9:cjc056_0082"
    INDEX 01 00:54:09
  TRACK 71 AUDIO
    TITLE "0:"
    INDEX 01 00:55:73
  TRACK 72 AUDIO
    TITLE "8:cjc056_0083"
    INDEX 01 00:56:27
  TRACK 73 AUDIO
    TITLE "0:"
    INDEX 01 00:57:58
  TRACK 74 AUDIO
    TITLE "9:cjc056_0084"
    INDEX 01 00:57:72
  TRACK 75 AUDIO
    TITLE "0:"
    INDEX 01 00:59:71
  TRACK 76 AUDIO
    TITLE "7:cjc056_0085"
    INDEX 01 01:00:51
  TRACK 77 AUDIO
    TITLE "0:"
    INDEX 01 01:01:52
  TRACK 78 AUDIO
    TITLE "8:cjc056_0086"
    INDEX 01 01:01:66
  TRACK 79 AUDIO
    TITLE "0:"
    INDEX 01 01:03:24
  TRACK 80 AUDIO
    TITLE "9:cjc056_0087"
    INDEX 01 01:03:37
  TRACK 81 AUDIO
    TITLE "0:"
    INDEX 01 01:05:21
  TRACK 82 AUDIO
    TITLE "8:cjc056_0088"
    INDEX 01 01:05:46
  TRACK 83 AUDIO
    TITLE "0:"
    INDEX 01 01:07:06
  TRACK 84 AUDIO
    TITLE "9:cjc056_0089"
    INDEX 01 01:07:19
  TRACK 85 AUDIO
    TITLE "0:"
    INDEX 01 01:09:09
